<svg width="40" height="40" viewBox="0 0 40 40" fill="none" xmlns="http://www.w3.org/2000/svg">
<path d="M0 4C0 1.79086 1.79086 0 4 0H14C16.2091 0 18 1.79086 18 4V14C18 16.2091 16.2091 18 14 18H4C1.79086 18 0 16.2091 0 14V4Z" fill="#314C97"/>
<path d="M0 26C0 23.7909 1.79086 22 4 22H14C16.2091 22 18 23.7909 18 26V36C18 38.2091 16.2091 40 14 40H4C1.79086 40 0 38.2091 0 36V26Z" fill="#314C97"/>
<path d="M22 4C22 1.79086 23.7909 0 26 0H36C38.2091 0 40 1.79086 40 4V14C40 16.2091 38.2091 18 36 18H26C23.7909 18 22 16.2091 22 14V4Z" fill="#314C97"/>
<path d="M22 26C22 23.7909 23.7909 22 26 22H36C38.2091 22 40 23.7909 40 26V36C40 38.2091 38.2091 40 36 40H26C23.7909 40 22 38.2091 22 36V26Z" fill="#314C97"/>
</svg>
