<svg width="65" height="64" viewBox="0 0 65 64" fill="none" xmlns="http://www.w3.org/2000/svg">
<path d="M29.6665 11V13.6379C29.6665 13.8719 29.5845 14.0984 29.4347 14.2781L26.0572 18.3312C25.1586 19.4095 24.6665 20.7687 24.6665 22.1723V36M29.6665 11C29.1142 11 28.6665 10.5523 28.6665 10V2C28.6665 1.44772 29.1142 1 29.6665 1H33.6665C34.2188 1 34.6665 1.44772 34.6665 2V10C34.6665 10.5523 34.2188 11 33.6665 11M29.6665 11H33.6665M33.6665 11V13.6379C33.6665 13.8719 33.7485 14.0984 33.8983 14.2781L37.2758 18.3312C38.1744 19.4095 38.6665 20.7687 38.6665 22.1723V36M38.6665 26H31.6665C30.5619 26 29.6665 26.8954 29.6665 28V36" stroke="#3B89E4" stroke-width="2" stroke-linecap="round"/>
<path d="M51.6665 19H52.6665C53.2188 19 53.6665 18.5523 53.6665 18V17C53.6665 16.4477 53.2188 16 52.6665 16H40.6665C40.1142 16 39.6665 16.4477 39.6665 17V18C39.6665 18.5523 40.1142 19 40.6665 19H41.6665M51.6665 19L54.2442 24.1554C54.522 24.7108 54.6665 25.3233 54.6665 25.9443V36M51.6665 19H41.6665M51.6665 36V29C51.6665 28.4477 51.2188 28 50.6665 28H42.6665C42.1142 28 41.6665 28.4477 41.6665 29V36M41.6665 19L39.0888 24.1554C38.8111 24.7108 38.6665 25.3233 38.6665 25.9443V36" stroke="#3B89E4" stroke-width="2" stroke-linecap="round"/>
<path fill-rule="evenodd" clip-rule="evenodd" d="M10.6031 10.6489C10.4092 10.1318 9.83276 9.86978 9.31564 10.0637C8.79852 10.2576 8.53652 10.834 8.73044 11.3512C9.22384 12.6669 9.96577 14.7939 10.5827 16.8832C10.6376 17.0692 10.6912 17.2536 10.7432 17.4362C9.2588 15.8617 7.49505 14.2501 6.31756 13.2408C5.89823 12.8813 5.26693 12.9299 4.90751 13.3492C4.54809 13.7686 4.59665 14.3999 5.01597 14.7593C6.16469 15.7439 7.88671 17.3188 9.31345 18.8353C9.97363 19.5369 10.5534 20.208 10.9813 20.7905C10.9085 20.8216 10.836 20.853 10.764 20.8847C9.46286 21.4572 8.23743 22.1561 7.31991 22.9607C6.42497 23.7455 5.66674 24.772 5.66674 26C5.66674 26.5476 5.82374 27.2041 6.04247 27.8805C6.26821 28.5785 6.58923 29.3845 6.97724 30.2614C7.75379 32.0163 8.82551 34.1149 10.0171 36.3063C10.1423 36.5365 10.2688 36.7678 10.3966 37H12.6833C12.5114 36.6921 12.3412 36.3852 12.1731 36.0799C12.6975 35.7864 13.3329 35.4392 13.9143 35.1379C14.3099 34.9329 14.6685 34.7555 14.9455 34.6315C15.0852 34.569 15.1898 34.5266 15.2604 34.5017C15.2702 34.4982 15.2787 34.4954 15.2859 34.493C15.782 34.4341 16.1667 34.012 16.1667 33.5C16.1667 32.9477 15.719 32.5 15.1667 32.5C14.9256 32.5 14.6957 32.5801 14.5953 32.6155C14.4517 32.6662 14.2915 32.7331 14.1285 32.806C13.8003 32.9529 13.4027 33.1505 12.9942 33.3621C12.3986 33.6707 11.7543 34.0226 11.2198 34.3215C10.8192 33.5699 10.439 32.8387 10.0864 32.1384C10.9713 31.6595 12.1311 31.0419 13.1599 30.5152C13.7664 30.2046 14.3186 29.9303 14.739 29.7354C14.9506 29.6372 15.1165 29.565 15.2334 29.5193C15.2696 29.5051 15.2961 29.4955 15.3142 29.4892C15.7966 29.4179 16.1667 29.0022 16.1667 28.5C16.1667 27.9477 15.719 27.5 15.1667 27.5C14.9856 27.5 14.8276 27.5466 14.7681 27.5643C14.681 27.5903 14.5907 27.6231 14.5051 27.6566C14.3323 27.7241 14.1239 27.816 13.8976 27.921C13.4419 28.1322 12.8628 28.4204 12.2485 28.7349C11.2318 29.2554 10.0943 29.8606 9.2101 30.3386C9.06741 30.0334 8.93251 29.7376 8.80618 29.4521C8.43345 28.6097 8.14199 27.8728 7.94543 27.265C7.74185 26.6355 7.66674 26.2233 7.66674 26C7.66674 25.628 7.9085 25.1046 8.63856 24.4644C9.34604 23.844 10.3706 23.2428 11.5695 22.7153C12.1718 22.4503 12.8025 22.2106 13.4382 22H13.6668C13.6668 21.9754 13.6669 21.9506 13.6673 21.9255C15.4948 21.3414 17.3413 21.0018 18.6563 21C18.6566 21.0002 18.6574 21.0005 18.6588 21.001C18.6821 21.0093 18.8566 21.0713 19.1651 21.4984C19.5115 21.9781 19.881 22.7225 20.2571 23.711C21.0044 25.6758 21.6942 28.3776 22.2976 31.2588C22.6982 33.1712 23.0566 35.1428 23.3663 37H25.3936C25.0677 35.0239 24.6856 32.9042 24.2552 30.8488C23.6459 27.9396 22.9307 25.1145 22.1264 23C21.7265 21.9488 21.2835 21.0156 20.7864 20.3274C20.3219 19.6843 19.624 19 18.6667 19C17.3392 19 15.651 19.2779 13.9473 19.7543C14.065 19.186 14.2134 18.5901 14.3799 17.9941C14.786 16.5404 15.274 15.1746 15.5952 14.3714C15.8004 13.8586 15.5509 13.2767 15.0382 13.0716C14.5254 12.8664 13.9434 13.1159 13.7383 13.6286C13.4426 14.368 13.0247 15.5256 12.6425 16.8034C12.5958 16.6408 12.5485 16.4784 12.5008 16.3168C11.8678 14.1728 11.1097 11.9998 10.6031 10.6489ZM15.339 29.4811C15.3543 29.4766 15.3521 29.4782 15.3363 29.4819L15.339 29.4811Z" fill="#3B89E4"/>
<path d="M45.6665 57L47.6665 46" stroke="black" stroke-width="2" stroke-linecap="round"/>
<path d="M37.6665 57L37.8483 55M38.6665 46L38.212 51" stroke="black" stroke-width="2" stroke-linecap="round"/>
<path d="M28.6665 57L27.6665 46" stroke="black" stroke-width="2" stroke-linecap="round"/>
<path d="M19.6665 57L18.5756 51M17.6665 46L18.0301 48" stroke="black" stroke-width="2" stroke-linecap="round"/>
<path d="M60.6666 36H4.66663C4.11434 36 3.66663 36.4477 3.66663 37V39C3.66663 39.5523 4.11434 40 4.66662 40H60.6666C61.2189 40 61.6666 39.5523 61.6666 39V37C61.6666 36.4477 61.2189 36 60.6666 36Z" stroke="black" stroke-width="2" stroke-linecap="round"/>
<path d="M7.66663 40L11.0902 59.6854C11.4234 61.6013 13.0863 63 15.031 63H50.3022C52.247 63 53.9099 61.6013 54.2431 59.6854L57.6666 40" stroke="black" stroke-width="2" stroke-linecap="round"/>
</svg>
