<svg width="65" height="64" viewBox="0 0 65 64" fill="none" xmlns="http://www.w3.org/2000/svg">
<path d="M23 45L30.8 34.6C31.5554 33.5928 32.741 33 34 33H37.1703C38.1169 33 38.8268 33.866 38.6412 34.7942L37.0598 42.701C37.0289 42.8557 37.1472 43 37.305 43H46.7374C49.3827 43 51.2995 45.5218 50.5915 48.0706L48.2206 56.6059C47.4992 59.2028 45.1347 61 42.4395 61H23M23 45H17C15.8954 45 15 45.8954 15 47V59C15 60.1046 15.8954 61 17 61H23M23 45V61" stroke="black" stroke-width="2"/>
<path d="M25 35H20.6578C18.0752 35 15.7824 36.6526 14.9657 39.1026L13.8076 42.577C13.6556 43.0328 13.0109 43.0328 12.8589 42.577L11.2604 37.7816C10.7067 36.1204 9.1522 35 7.40122 35V35C5.15454 35 3.33325 33.1787 3.33325 30.932V9C3.33325 5.68629 6.01954 3 9.33325 3H37.3333M43 35H55.3333C58.647 35 61.3333 32.3137 61.3333 29V9C61.3333 5.68629 58.647 3 55.3333 3H47.3333M41.3333 3H43.3333" stroke="black" stroke-width="2" stroke-linecap="round"/>
<path d="M54.6092 15.8732V16.6232V15.8732ZM52.0897 20.0214L51.3764 20.2532L52.0897 20.0214ZM52.3621 19.1829L52.803 19.7896L52.3621 19.1829ZM51.9622 24.0198L51.5214 24.6265L51.9622 24.0198ZM53.1164 23.1812L52.4031 23.413L53.1164 23.1812ZM48.3927 22.0669L47.9518 21.4601L48.3927 22.0669ZM44.5506 23.1812L43.8373 22.9495L44.5506 23.1812ZM45.7047 24.0198L46.1456 24.6265L45.7047 24.0198ZM45.3049 19.1829L44.864 19.7896L45.3049 19.1829ZM45.5773 20.0214L46.2906 20.2532L45.5773 20.0214ZM42.6169 17.23L42.1761 17.8368L42.6169 17.23ZM46.3802 15.8732V15.1232V15.8732ZM49.5468 12.1952L48.8335 12.4269L49.5468 12.1952ZM48.1202 12.1952L48.8335 12.4269L48.1202 12.1952ZM12.7047 24.0198L12.2638 23.413L12.7047 24.0198ZM16.2742 22.0669L15.8334 22.6737L16.2742 22.0669ZM15.3926 22.0669L15.8334 22.6737L15.3926 22.0669ZM20.1163 23.1813L19.403 23.413L20.1163 23.1813ZM19.3621 19.1829L19.8029 19.7897L19.3621 19.1829ZM19.0896 20.0214L19.8029 19.7897L19.0896 20.0214ZM16.5467 12.1952L15.8334 12.4269L16.5467 12.1952ZM17.5734 15.355L16.8601 15.5868L17.5734 15.355ZM18.2867 15.8733V15.1233V15.8733ZM30.5933 15.355L29.88 15.1232L30.5933 15.355ZM26.1167 17.23L25.6759 17.8368L26.1167 17.23ZM29.0771 20.0214L28.3638 19.7896L29.0771 20.0214ZM28.8046 19.1829L29.2454 18.5761L28.8046 19.1829ZM29.2045 24.0198L28.7637 23.413L29.2045 24.0198ZM28.0504 23.1812L28.7637 23.413L28.0504 23.1812ZM32.7741 22.0669L33.2149 21.4601L32.7741 22.0669ZM31.8924 22.0669L31.4516 21.4601L31.8924 22.0669ZM36.6161 23.1812L35.9028 23.413L36.6161 23.1812ZM35.462 24.0198L35.9028 23.413L35.462 24.0198ZM35.8619 19.1829L35.4211 18.5761L35.8619 19.1829ZM35.5894 20.0214L36.3027 19.7896L35.5894 20.0214ZM38.109 15.8732V16.6232V15.8732ZM38.5498 17.23L38.9906 17.8368L38.5498 17.23ZM33.0465 12.1952L32.3333 12.4269L33.0465 12.1952ZM31.62 12.1952L30.9067 11.9634L31.62 12.1952ZM34.0732 15.355L34.7865 15.1232L34.0732 15.355ZM34.7865 15.8732V16.6232V15.8732ZM34.7865 15.1232L33.7598 11.9634L32.3333 12.4269L33.3599 15.5868L34.7865 15.1232ZM38.109 15.1232L34.7865 15.1232V16.6232L38.109 16.6232V15.1232ZM36.3027 19.7896L38.9906 17.8368L38.109 16.6232L35.4211 18.5761L36.3027 19.7896ZM37.3294 22.9495L36.3027 19.7896L34.8762 20.2532L35.9028 23.413L37.3294 22.9495ZM32.3333 22.6736L35.0212 24.6265L35.9028 23.413L33.2149 21.4601L32.3333 22.6736ZM29.6453 24.6265L32.3333 22.6736L31.4516 21.4601L28.7637 23.413L29.6453 24.6265ZM28.3638 19.7896L27.3371 22.9495L28.7637 23.413L29.7904 20.2532L28.3638 19.7896ZM25.6759 17.8368L28.3638 19.7896L29.2454 18.5761L26.5575 16.6232L25.6759 17.8368ZM29.88 15.1232L26.5575 15.1232V16.6232L29.88 16.6232V15.1232ZM30.9067 11.9634L29.88 15.1232L31.3066 15.5868L32.3333 12.4269L30.9067 11.9634ZM18.2867 15.1233L17.26 11.9634L15.8334 12.4269L16.8601 15.5868L18.2867 15.1233ZM21.6091 15.1233L18.2867 15.1233V16.6233L21.6091 16.6233V15.1233ZM19.8029 19.7897L22.4908 17.8368L21.6091 16.6233L18.9212 18.5761L19.8029 19.7897ZM20.8296 22.9495L19.8029 19.7897L18.3763 20.2532L19.403 23.413L20.8296 22.9495ZM15.8334 22.6737L18.5213 24.6265L19.403 23.413L16.7151 21.4601L15.8334 22.6737ZM13.1455 24.6265L15.8334 22.6737L14.9517 21.4601L12.2638 23.413L13.1455 24.6265ZM11.8639 19.7897L10.8372 22.9495L12.2638 23.413L13.2905 20.2532L11.8639 19.7897ZM9.17601 17.8368L11.8639 19.7897L12.7456 18.5761L10.0577 16.6233L9.17601 17.8368ZM13.3801 15.1233L10.0577 15.1233L10.0577 16.6233L13.3801 16.6233V15.1233ZM14.4068 11.9634L13.3801 15.1233L14.8067 15.5868L15.8334 12.4269L14.4068 11.9634ZM48.8335 12.4269L49.8602 15.5868L51.2868 15.1232L50.2601 11.9634L48.8335 12.4269ZM47.8068 15.5868L48.8335 12.4269L47.4069 11.9634L46.3802 15.1232L47.8068 15.5868ZM43.0578 16.6232L46.3802 16.6232V15.1232L43.0578 15.1232V16.6232ZM45.7457 18.5761L43.0578 16.6232L42.1761 17.8368L44.864 19.7896L45.7457 18.5761ZM45.2639 23.413L46.2906 20.2532L44.864 19.7896L43.8373 22.9495L45.2639 23.413ZM47.9518 21.4601L45.2639 23.413L46.1456 24.6265L48.8335 22.6736L47.9518 21.4601ZM52.4031 23.413L49.7152 21.4601L48.8335 22.6736L51.5214 24.6265L52.4031 23.413ZM51.3764 20.2532L52.4031 23.413L53.8297 22.9495L52.803 19.7896L51.3764 20.2532ZM54.6092 16.6232L51.9213 18.5761L52.803 19.7896L55.4909 17.8368L54.6092 16.6232ZM51.2868 16.6232L54.6092 16.6232V15.1232L51.2868 15.1232V16.6232ZM55.4909 17.8368C56.6665 16.9827 56.0623 15.1232 54.6092 15.1232V16.6232L55.4909 17.8368ZM52.803 19.7896H52.803L51.9213 18.5761C51.3956 18.9581 51.1756 19.6351 51.3764 20.2532L52.803 19.7896ZM51.5214 24.6265C52.697 25.4806 54.2787 24.3314 53.8297 22.9495L52.4031 23.413V23.413L51.5214 24.6265ZM48.8335 22.6736L49.7152 21.4601C49.1894 21.0781 48.4776 21.0781 47.9518 21.4601L48.8335 22.6736ZM43.8373 22.9495C43.3883 24.3314 44.97 25.4806 46.1456 24.6265L45.2639 23.413V23.413L43.8373 22.9495ZM44.864 19.7896L44.864 19.7896L46.2906 20.2532C46.4914 19.6351 46.2714 18.9581 45.7457 18.5761L44.864 19.7896ZM43.0578 15.1232C41.6047 15.1232 41.0005 16.9827 42.1761 17.8368L43.0578 16.6232V16.6232V15.1232ZM46.3802 15.1232V16.6232C47.0301 16.6232 47.606 16.2048 47.8068 15.5868L46.3802 15.1232ZM49.8602 15.5868C50.061 16.2048 50.6369 16.6232 51.2868 16.6232V15.1232V15.1232L49.8602 15.5868ZM50.2601 11.9634C49.8111 10.5814 47.8559 10.5814 47.4069 11.9634L48.8335 12.4269L50.2601 11.9634ZM13.3801 16.6233C14.03 16.6233 14.6059 16.2048 14.8067 15.5868L13.3801 15.1233L13.3801 15.1233V16.6233ZM10.0577 16.6233L10.0577 16.6233L10.0577 15.1233C8.6046 15.1233 8.00044 16.9827 9.17601 17.8368L10.0577 16.6233ZM13.2905 20.2532C13.4913 19.6351 13.2713 18.9581 12.7456 18.5761L11.8639 19.7897L11.8639 19.7897L13.2905 20.2532ZM12.2638 23.413H12.2638L10.8372 22.9495C10.3882 24.3315 11.9699 25.4806 13.1455 24.6265L12.2638 23.413ZM16.7151 21.4601C16.1894 21.0782 15.4775 21.0782 14.9517 21.4601L15.8334 22.6737H15.8334L16.7151 21.4601ZM19.403 23.413H19.403L18.5213 24.6265C19.6969 25.4806 21.2786 24.3315 20.8296 22.9495L19.403 23.413ZM18.9212 18.5761C18.3955 18.9581 18.1755 19.6351 18.3763 20.2532L19.8029 19.7897L18.9212 18.5761ZM21.6091 16.6233L22.4908 17.8368C23.6664 16.9827 23.0622 15.1233 21.6091 15.1233V16.6233ZM17.26 11.9634C16.811 10.5815 14.8559 10.5815 14.4068 11.9634L15.8334 12.4269L15.8334 12.4269L17.26 11.9634ZM16.8601 15.5868C17.0609 16.2048 17.6368 16.6233 18.2867 16.6233V15.1233L16.8601 15.5868ZM29.88 16.6232C30.5298 16.6232 31.1057 16.2048 31.3066 15.5868L29.88 15.1232V15.1232V16.6232ZM26.5575 16.6232V15.1232C25.1044 15.1232 24.5003 16.9827 25.6759 17.8368L26.5575 16.6232ZM29.7904 20.2532C29.9912 19.6351 29.7712 18.9581 29.2454 18.5761L28.3638 19.7896L29.7904 20.2532ZM28.7637 23.413V23.413L27.3371 22.9495C26.888 24.3314 28.4698 25.4806 29.6453 24.6265L28.7637 23.413ZM33.2149 21.4601C32.6892 21.0781 31.9773 21.0781 31.4516 21.4601L32.3333 22.6736L33.2149 21.4601ZM35.9028 23.413L35.9028 23.413L35.0212 24.6265C36.1967 25.4806 37.7785 24.3314 37.3294 22.9495L35.9028 23.413ZM35.4211 18.5761C34.8953 18.9581 34.6753 19.6351 34.8762 20.2532L36.3027 19.7896V19.7896L35.4211 18.5761ZM38.109 16.6232V16.6232L38.9906 17.8368C40.1662 16.9827 39.5621 15.1232 38.109 15.1232V16.6232ZM33.7598 11.9634C33.3108 10.5814 31.3557 10.5814 30.9067 11.9634L32.3333 12.4269V12.4269L33.7598 11.9634ZM33.3599 15.5868C33.5608 16.2048 34.1367 16.6232 34.7865 16.6232V15.1232L33.3599 15.5868Z" fill="#3B89E4"/>
</svg>
