<svg width="155" height="81" viewBox="0 0 155 81" fill="none" xmlns="http://www.w3.org/2000/svg">
<g style="mix-blend-mode:overlay" opacity="0.5">
<path d="M0.828372 0C0.572771 0.783569 0.756326 1.67914 1.37904 2.30185C2.26202 3.18483 3.69363 3.18483 4.57662 2.30185L6.87846 0H0.828372Z" fill="white"/>
<path d="M22.4096 0L3.64958 18.76C2.76659 19.643 2.76659 21.0746 3.64958 21.9576C4.53256 22.8405 5.96417 22.8405 6.84715 21.9576L28.8047 0H22.4096Z" fill="white"/>
<path d="M44.3358 0L9.88798 34.4478C9.005 35.3308 9.005 36.7624 9.88798 37.6454C10.771 38.5284 12.2026 38.5284 13.0856 37.6454L50.731 0H44.3358Z" fill="white"/>
<path d="M66.2621 0L17.9536 48.3085C17.0706 49.1915 17.0706 50.6231 17.9536 51.5061C18.8366 52.389 20.2682 52.389 21.1512 51.5061L72.6572 0H66.2621Z" fill="white"/>
<path d="M88.1883 0L27.8464 60.3419C26.9634 61.2249 26.9634 62.6565 27.8464 63.5395C28.7294 64.4225 30.161 64.4225 31.0439 63.5395L94.5835 0H88.1883Z" fill="white"/>
<path d="M110.115 0L42.4639 67.6507C41.5809 68.5337 41.5809 69.9653 42.4639 70.8483C43.3469 71.7313 44.7785 71.7313 45.6614 70.8483L116.51 0H110.115Z" fill="white"/>
<path d="M132.041 0L58.9086 73.1323C58.0256 74.0153 58.0256 75.4469 58.9086 76.3298C59.7915 77.2128 61.2231 77.2128 62.1061 76.3298L138.436 0H132.041Z" fill="white"/>
<path d="M77.1804 76.7866C76.2974 77.6696 76.2974 79.1012 77.1804 79.9842C78.0634 80.8672 79.495 80.8672 80.378 79.9842L153.466 6.89671C154.349 6.01372 154.349 4.58212 153.466 3.69913C152.583 2.81614 151.151 2.81614 150.268 3.69913L77.1804 76.7866Z" fill="white"/>
<path d="M104.588 71.3051C103.705 72.1881 103.705 73.6197 104.588 74.5026C105.471 75.3856 106.903 75.3856 107.786 74.5026L147.984 34.3045C148.867 33.4215 148.867 31.9899 147.984 31.1069C147.101 30.224 145.669 30.224 144.786 31.1069L104.588 71.3051Z" fill="white"/>
</g>
</svg>
