<svg width="20" height="12" viewBox="0 0 20 12" fill="none" xmlns="http://www.w3.org/2000/svg">
<path d="M2.85209 0.666626H0.778013C0.185421 0.666626 0.0668945 0.94559 0.0668945 1.2532C0.0668945 1.80256 0.770054 4.52726 3.34091 8.13087C5.0548 10.5918 7.46957 11.9259 9.6669 11.9259C10.9853 11.9259 11.1484 11.6296 11.1484 11.1192V9.25922C11.1484 8.66663 11.2733 8.54836 11.6908 8.54836C11.9984 8.54836 12.5258 8.70217 13.7563 9.88873C15.1626 11.295 15.3944 11.9259 16.1854 11.9259H18.2595C18.8521 11.9259 19.1484 11.6296 18.9774 11.0449C18.7904 10.4621 18.119 9.61657 17.2281 8.61427C16.7446 8.04298 16.0195 7.42775 15.7998 7.12006C15.4922 6.72459 15.58 6.54876 15.7998 6.19722L15.8367 6.14489C16.1492 5.70069 18.3456 2.55122 18.5904 1.42903C18.7222 0.989556 18.5904 0.666626 17.9632 0.666626H15.8891C15.3618 0.666626 15.1186 0.94559 14.9868 1.2532C14.9868 1.2532 13.932 3.8241 12.4379 5.49406C11.9545 5.97747 11.7347 6.13127 11.471 6.13127C11.3392 6.13127 11.1483 5.97747 11.1483 5.53803V1.42903C11.1483 0.901661 10.9953 0.666626 10.5558 0.666626H7.29653C6.96697 0.666626 6.76877 0.911391 6.76877 1.14336C6.76877 1.6433 7.51582 1.75859 7.59283 3.16491V6.2192C7.59283 6.88885 7.47189 7.01026 7.20821 7.01026C6.50509 7.01026 4.79474 4.42788 3.78035 1.47296C3.58155 0.898625 3.38216 0.666626 2.85209 0.666626Z" fill="#3B89E4"/>
</svg>
