<svg width="65" height="64" viewBox="0 0 65 64" fill="none" xmlns="http://www.w3.org/2000/svg">
<g clip-path="url(#clip0_41_57)">
<path d="M49.8333 13V11C49.8333 8.79086 48.0424 7 45.8333 7H19.8333C17.6241 7 15.8333 8.79086 15.8333 11V17M49.8333 17V19M49.8333 23V39C49.8333 41.2091 48.0424 43 45.8333 43H19.8333C17.6241 43 15.8333 41.2091 15.8333 39V37" stroke="#3B89E4" stroke-width="2" stroke-linecap="round"/>
<path d="M35.8333 37H37.8333M41.8333 37H43.8333" stroke="#3B89E4" stroke-width="2" stroke-linecap="round"/>
<path d="M27.8333 7C27.8333 7.38333 27.8333 13.3075 27.8333 16.5876C27.8333 16.8529 27.9386 17.1054 28.1261 17.2929V17.2929C28.5167 17.6834 29.1498 17.6834 29.5404 17.2929L29.7185 17.1147C29.7945 17.0387 29.8578 16.951 29.9058 16.8549L31.9388 12.7889C32.3073 12.0518 33.3592 12.0518 33.7277 12.7889L35.7607 16.8549C35.8087 16.951 35.872 17.0387 35.948 17.1147L36.1261 17.2929C36.5167 17.6834 37.1498 17.6834 37.5404 17.2929V17.2929C37.7279 17.1054 37.8333 16.851 37.8333 16.5858V7" stroke="#3B89E4" stroke-width="2" stroke-linecap="round"/>
<path d="M62.8333 47H59.6036C59.0947 47 58.5905 46.9029 58.118 46.7139L55.1302 45.5188C54.2904 45.1829 53.3616 45.1415 52.4953 45.4014L46.5424 47.1873C45.318 47.5546 44.9293 49.0961 45.8333 50V50M45.8333 50L33.7217 49.0683C33.1578 49.025 32.6031 49.2302 32.2032 49.6301V49.6301C31.4466 50.3867 31.4466 51.6133 32.2032 52.3699L32.4353 52.6021C32.6966 52.8634 33.0179 53.0568 33.3711 53.1655L45.2584 56.8231C45.6395 56.9404 46.036 57 46.4347 57H49.8333M45.8333 50V50C46.4735 50.6403 47.342 51 48.2475 51H53.8333M53.8333 57H55.8333M59.8333 57H62.8333" stroke="black" stroke-width="2" stroke-linecap="round"/>
<path d="M1.83325 21H4.62215C5.41185 21 6.18388 20.7662 6.84095 20.3282L10.8256 17.6718C11.4826 17.2338 12.2547 17 13.0444 17H18.0048C18.5353 17 19.044 17.2107 19.419 17.5858V17.5858C20.2001 18.3668 20.2001 19.6332 19.419 20.4142L18.8333 21M18.8333 21H12.8333M18.8333 21H28.0048C28.5353 21 29.044 21.2107 29.419 21.5858V21.5858C30.2001 22.3668 30.2001 23.6332 29.419 24.4142L28.8333 25M28.8333 25H29.0048C29.5353 25 30.044 25.2107 30.419 25.5858V25.5858C31.2001 26.3668 31.2001 27.6332 30.419 28.4142L29.8333 29M28.8333 25H16.8333M29.8333 29L30.419 29.5858C31.2001 30.3668 31.2001 31.6332 30.419 32.4142V32.4142C30.044 32.7893 29.5353 33 29.0048 33H23.8333M29.8333 29C29.4333 29 20.9999 29 16.8333 29M16.8333 33H23.8333M23.8333 33L24.419 33.5858C25.2001 34.3668 25.2001 35.6332 24.419 36.4142V36.4142C24.044 36.7893 23.5353 37 23.0048 37H12.4824C12.0524 37 11.6253 36.9307 11.2175 36.7947L6.44905 35.2053C6.04119 35.0693 5.61407 35 5.18414 35H1.83325" stroke="black" stroke-width="2" stroke-linecap="round"/>
</g>
<defs>
<clipPath id="clip0_41_57">
<rect width="64" height="64" fill="white" transform="translate(0.333252)"/>
</clipPath>
</defs>
</svg>
