<svg width="65" height="64" viewBox="0 0 65 64" fill="none" xmlns="http://www.w3.org/2000/svg">
<path d="M3.66663 41H39.6666M3.66663 41V47C3.66663 49.2091 5.45749 51 7.66663 51H9.66663M3.66663 41V29M39.6666 41V51M39.6666 41V21M39.6666 51H21.6666M39.6666 51H43.6666M31.6666 15H35.6666C37.8758 15 39.6666 16.7909 39.6666 19V21M55.6666 51H59.9166C60.8831 51 61.6666 50.2165 61.6666 49.25V49M61.6666 45V43M61.6666 39V38.75C61.6666 36.6789 59.9877 35 57.9166 35H55.6666M43.6666 21V33C43.6666 34.1046 44.5621 35 45.6666 35H55.6666M43.6666 21H39.6666M43.6666 21H50.1974C52.188 21 53.8757 22.4637 54.1572 24.4343L55.6666 35M43.6666 41H45.6666" stroke="black" stroke-width="2" stroke-linecap="round"/>
<circle cx="15.6666" cy="51" r="6" stroke="black" stroke-width="2"/>
<circle cx="49.6665" cy="51" r="6" stroke="black" stroke-width="2"/>
<path d="M3.66663 19C3.66663 18.3186 3.72342 17.6504 3.83254 17M5.27201 13C7.34687 9.41319 11.2249 7 15.6666 7C22.294 7 27.6666 12.3726 27.6666 19C27.6666 25.6274 22.294 31 15.6666 31C10.4418 31 5.99679 27.6608 4.34945 23" stroke="#3B89E4" stroke-width="2" stroke-linecap="round"/>
<path d="M15.6666 11V19L19.6666 23" stroke="#3B89E4" stroke-width="2" stroke-linecap="round"/>
</svg>
