<svg width="64" height="64" viewBox="0 0 64 64" fill="none" xmlns="http://www.w3.org/2000/svg">
<path d="M41 47H55M41 51H53" stroke="black" stroke-width="2" stroke-linecap="round"/>
<path d="M31 17H57C59.2091 17 61 18.7909 61 21V33M61 37V39M61 43V53C61 55.2091 59.2091 57 57 57H15C12.7909 57 11 55.2091 11 53V35" stroke="black" stroke-width="2" stroke-linecap="round"/>
<path d="M31 17C31 17.3849 31 31.6912 31 35.5911C31 35.8563 31.1054 36.1054 31.2929 36.2929V36.2929C31.6834 36.6834 32.3166 36.6834 32.7071 36.2929L32.8853 36.1147C32.9613 36.0387 33.0245 35.951 33.0726 35.8549L35.1056 31.7889C35.4741 31.0518 36.5259 31.0518 36.8944 31.7889L38.9274 35.8549C38.9755 35.951 39.0387 36.0387 39.1147 36.1147L39.2929 36.2929C39.6834 36.6834 40.3166 36.6834 40.7071 36.2929V36.2929C40.8946 36.1054 41 35.851 41 35.5858V17" stroke="black" stroke-width="2" stroke-linecap="round"/>
<path d="M3 19C3 18.3186 3.0568 17.6504 3.16592 17M4.60539 13C6.68024 9.41319 10.5583 7 15 7C21.6274 7 27 12.3726 27 19C27 25.6274 21.6274 31 15 31C9.77512 31 5.33017 27.6608 3.68282 23" stroke="#3B89E4" stroke-width="2" stroke-linecap="round"/>
<path d="M15 11V19L19 23" stroke="#3B89E4" stroke-width="2" stroke-linecap="round"/>
</svg>
