<svg width="21" height="20" viewBox="0 0 21 20" fill="none" xmlns="http://www.w3.org/2000/svg">
<path d="M17.5859 3.06649C15.7667 1.22407 13.2979 0.222046 10.6992 0.222046C5.33927 0.222046 0.953885 4.55336 0.953885 9.91902C0.953885 11.6321 1.40867 13.2806 2.25326 14.7675L0.888916 19.7776L6.05392 18.42C7.48323 19.1958 9.07496 19.5837 10.6992 19.5837C16.0591 19.5837 20.4445 15.2523 20.4445 9.88669C20.4445 7.33316 19.4375 4.90892 17.5859 3.06649ZM10.6992 17.9675C9.23738 17.9675 7.80807 17.5796 6.57367 16.8362L6.28131 16.6746L3.22779 17.4827L4.03989 14.5089L3.84499 14.218C3.03288 12.9251 2.61058 11.4705 2.61058 9.91902C2.61058 5.49073 6.24883 1.87053 10.6992 1.87053C12.8756 1.87053 14.8897 2.71093 16.4164 4.23013C17.9432 5.74932 18.7878 7.78568 18.7878 9.91902C18.7878 14.3473 15.182 17.9675 10.6992 17.9675Z" fill="#3B89E4"/>
<path d="M15.1495 11.923C14.9221 11.7937 13.7202 11.2119 13.4928 11.1473C13.2654 11.0503 13.103 11.018 12.9406 11.2766C12.7781 11.5351 12.3234 12.0523 12.1609 12.2139C12.031 12.3755 11.8686 12.4079 11.6412 12.2786C11.4138 12.1493 10.6017 11.8907 9.69213 11.0826C8.97747 10.4362 8.4902 9.6604 8.32778 9.40181C8.19785 9.14323 8.32778 9.01394 8.42524 8.91697C8.52269 8.82 8.65263 8.62606 8.78256 8.49676C8.9125 8.36747 8.94499 8.23818 9.00995 8.10888C9.10741 7.94727 9.04244 7.81798 8.97747 7.68868C8.9125 7.55939 8.42524 6.36343 8.23033 5.87858C8.03542 5.39373 7.84052 5.45838 7.6781 5.45838C7.54816 5.45838 7.38574 5.45838 7.22332 5.45838C7.0609 5.45838 6.80102 5.52303 6.57363 5.74929C6.34624 6.00788 5.72904 6.58969 5.72904 7.75333C5.72904 8.91696 6.60611 10.0806 6.73605 10.2422C6.86599 10.4038 8.45772 12.8604 10.894 13.8947C11.4788 14.1533 11.9335 14.2826 12.2909 14.4119C12.8756 14.6059 13.3953 14.5735 13.8176 14.5089C14.2724 14.4442 15.2469 13.9271 15.4743 13.3452C15.7017 12.7634 15.6692 12.3109 15.6043 12.1816C15.5393 12.117 15.3769 12.0523 15.1495 11.923Z" fill="#3B89E4"/>
</svg>
